<?xml version="1.0" encoding="iso-8859-1"?>
<!-- Generator: Adobe Illustrator 19.0.0, SVG Export Plug-In . SVG Version: 6.00 Build 0)  -->
<svg version="1.1" id="Capa_1" xmlns="http://www.w3.org/2000/svg" xmlns:xlink="http://www.w3.org/1999/xlink" x="0px" y="0px"
	 viewBox="0 0 480.8 480.8" style="enable-background:new 0 0 480.8 480.8;" xml:space="preserve">
<g>
	<path style="fill:#3DB4D3;" d="M400.4,48.4c-16.8,0-32.8-6.4-44.8-17.6c-19.2-19.2-50.4-19.2-70.4,0c-12,11.2-28,17.6-44.8,17.6
		s-32.8-6.4-44.8-17.6c-19.2-19.2-50.4-19.2-70.4,0c-12,11.2-28,17.6-44.8,17.6S47.6,42,35.6,30.8C26,21.2,13.2,16.4,0.4,16.4v-16
		c16.8,0,32.8,6.4,44.8,17.6c9.6,9.6,22.4,14.4,35.2,14.4S106,27.6,115.6,18c25.6-24,64.8-24,89.6,0c9.6,9.6,22.4,14.4,35.2,14.4
		c12.8,0,25.6-4.8,35.2-14.4c25.6-24,64.8-24,90.4,0c8.8,9.6,21.6,14.4,34.4,14.4S426,27.6,435.6,18c12-11.2,28-17.6,44.8-17.6v16
		c-12.8,0-25.6,4.8-35.2,14.4C433.2,42,417.2,48.4,400.4,48.4z"/>
	<path style="fill:#3DB4D3;" d="M400.4,216.4c-16.8,0-32.8-6.4-44.8-17.6c-19.2-19.2-50.4-19.2-70.4,0c-25.6,24-64.8,24-89.6,0
		c-19.2-19.2-50.4-19.2-70.4,0c-25.6,24-64.8,24-89.6,0c-9.6-9.6-22.4-14.4-35.2-14.4v-16c16.8,0,32.8,6.4,44.8,17.6
		c19.2,19.2,50.4,19.2,69.6,0c25.6-24,64.8-24,89.6,0c19.2,19.2,50.4,19.2,70.4,0c25.6-24,64.8-24,90.4,0
		c19.2,19.2,50.4,19.2,70.4,0c12-11.2,28-17.6,44.8-17.6v16c-12.8,0-25.6,4.8-35.2,14.4C433.2,210,417.2,216.4,400.4,216.4z"/>
	<path style="fill:#3DB4D3;" d="M400.4,128.4c-16.8,0-32.8-6.4-44.8-17.6c-19.2-19.2-50.4-19.2-70.4,0c-25.6,24-64.8,24-89.6,0
		c-19.2-19.2-50.4-19.2-70.4,0c-25.6,24-64.8,24-89.6,0C26,101.2,13.2,96.4,0.4,96.4v-16c16.8,0,32.8,6.4,44.8,17.6
		c19.2,19.2,50.4,19.2,69.6,0c25.6-24,64.8-24,89.6,0c19.2,19.2,50.4,19.2,70.4,0c25.6-24,64.8-24,90.4,0
		c19.2,19.2,50.4,19.2,70.4,0c12-11.2,28-17.6,44.8-17.6v16c-12.8,0-25.6,4.8-35.2,14.4C433.2,122,417.2,128.4,400.4,128.4z"/>
	<path style="fill:#3DB4D3;" d="M400.4,304.4c-16.8,0-32.8-6.4-44.8-17.6c-19.2-19.2-50.4-19.2-70.4,0c-25.6,24-64.8,24-89.6,0
		c-19.2-19.2-50.4-19.2-70.4,0c-25.6,24-64.8,24-89.6,0c-9.6-9.6-22.4-14.4-35.2-14.4v-16c16.8,0,32.8,6.4,44.8,17.6
		c19.2,19.2,50.4,19.2,69.6,0c25.6-24,64.8-24,89.6,0c19.2,19.2,50.4,19.2,70.4,0c25.6-24,64.8-24,90.4,0
		c19.2,19.2,50.4,19.2,70.4,0c12-11.2,28-17.6,44.8-17.6v16c-12.8,0-25.6,4.8-35.2,14.4C433.2,298,417.2,304.4,400.4,304.4z"/>
	<path style="fill:#3DB4D3;" d="M400.4,480.4c-16.8,0-32.8-6.4-44.8-17.6c-19.2-19.2-50.4-19.2-70.4,0c-25.6,24-64.8,24-89.6,0
		c-19.2-19.2-50.4-19.2-70.4,0c-25.6,24-64.8,24-89.6,0c-9.6-9.6-22.4-14.4-35.2-14.4v-16c16.8,0,32.8,6.4,44.8,17.6
		c19.2,19.2,50.4,19.2,69.6,0c25.6-24,64.8-24,89.6,0c19.2,19.2,50.4,19.2,70.4,0c25.6-24,64.8-24,90.4,0
		c19.2,19.2,50.4,19.2,70.4,0c12-11.2,28-17.6,44.8-17.6v16c-12.8,0-25.6,4.8-35.2,14.4C433.2,474,417.2,480.4,400.4,480.4z"/>
	<path style="fill:#3DB4D3;" d="M400.4,392.4c-16.8,0-32.8-6.4-44.8-17.6c-19.2-19.2-50.4-19.2-70.4,0c-25.6,24-64.8,24-89.6,0
		c-19.2-19.2-50.4-19.2-70.4,0c-25.6,24-64.8,24-89.6,0c-9.6-9.6-22.4-14.4-35.2-14.4v-16c16.8,0,32.8,6.4,44.8,17.6
		c19.2,19.2,50.4,19.2,69.6,0c25.6-24,64.8-24,89.6,0c19.2,19.2,50.4,19.2,70.4,0c25.6-24,64.8-24,90.4,0
		c19.2,19.2,50.4,19.2,70.4,0c12-11.2,28-17.6,44.8-17.6v16c-12.8,0-25.6,4.8-35.2,14.4C433.2,386,417.2,392.4,400.4,392.4z"/>
</g>
<g>
</g>
<g>
</g>
<g>
</g>
<g>
</g>
<g>
</g>
<g>
</g>
<g>
</g>
<g>
</g>
<g>
</g>
<g>
</g>
<g>
</g>
<g>
</g>
<g>
</g>
<g>
</g>
<g>
</g>
</svg>
