<svg height="512pt" viewBox="0 0 512 512.00117" width="512pt" xmlns="http://www.w3.org/2000/svg"><path d="m422.585938 290.40625-42.296876 42.597656c-5.703124 5.703125-15.300781 5.703125-21.300781 0-5.699219-6-5.699219-15.597656 0-21.296875l42.597657-42.300781c5.699218-6 15.300781-6 21 0 6 5.703125 6 15.300781 0 21zm0 0" fill="#895d3c"/><path d="m422.585938 290.40625-42.296876 42.597656c-5.703124 5.703125-15.300781 5.703125-21.300781 0l63.597657-63.597656c6 5.703125 6 15.300781 0 21zm0 0" fill="#714c2f"/><path d="m479.28125 505.699219c-2.996094 3.902343-7.5 6.300781-12.296875 6.300781h-451.984375c-8.402344 0-15-6.597656-15-15v-481.980469c0-8.402343 6.597656-14.9999998 15-14.9999998h91.996094c5.699218 0 10.800781 3.3007808 13.5 8.3984378l1.5 3 15 93.597656 15-39.296875 51.597656 25.796875c2.398438 1.203125 4.5 3 6 5.097656l32.398438 48.601563 27.597656 41.398437c1.5 2.398438 2.402344 5.398438 2.402344 8.398438v69.296875l-30 29.699218-3 3 3-.597656 53.996093-8.703125 27.601563 13.800781c5.097656 2.703126 8.398437 7.800782 8.398437 13.5v23.699219l-34.5 46.796875 48.898438-18.597656 94.199219 23.695312c5.097656 1.203126 8.996093 4.800782 10.496093 9.601563l30 91.996094c1.800781 4.5.902344 9.601562-1.800781 13.5zm0 0" fill="#895d3c"/><path d="m271.992188 264.308594-30 29.699218v-148.796874l27.597656 41.398437c1.5 2.402344 2.402344 5.402344 2.402344 8.402344zm0 0" fill="#714c2f"/><path d="m479.28125 505.699219c-2.996094 3.902343-7.5 6.300781-12.296875 6.300781h-224.992187v-215.589844l53.996093-8.703125 27.601563 13.800781c5.097656 2.703126 8.398437 7.800782 8.398437 13.5v23.699219l-34.5 46.796875 48.898438-18.597656 94.199219 23.695312c5.097656 1.203126 8.996093 4.800782 10.496093 9.601563l30 91.996094c1.800781 4.5.902344 9.601562-1.800781 13.5zm0 0" fill="#714c2f"/><path d="m330.488281 68.417969-29.996093-60c-3.902344-7.5-12.902344-10.5-20.097657-6.898438l-60 29.996094c-4.5 2.101563-7.5 6.300781-8.101562 11.101563-.898438 4.800781.601562 9.597656 4.199219 12.898437l30 30c2.699218 3 6.597656 4.5 10.5 4.5h59.996093c5.101563 0 9.902344-2.699219 12.902344-7.199219 2.699219-4.199218 2.699219-9.902344.597656-14.398437zm0 0" fill="#895d3c"/><g fill="#714c2f"><path d="m430.277344 178.429688-60-30c-5.082032-2.546876-8.289063-7.734376-8.289063-13.417969v-29.996094c0-5.683594 3.207031-10.871094 8.289063-13.417969l60-30c4.628906-2.34375 10.136718-2.109375 14.589844.660156 4.421874 2.738282 7.117187 7.558594 7.117187 12.757813v89.996094c0 5.199219-2.695313 10.019531-7.117187 12.757812-4.332032 2.695313-9.84375 3.015625-14.589844.660157zm0 0"/><path d="m361.988281 195.011719c0 8.285156-6.714843 15-15 15-8.285156 0-15-6.714844-15-15 0-8.285157 6.714844-15 15-15 8.285157 0 15 6.714843 15 15zm0 0"/><path d="m301.988281 135.011719c0 8.285156-6.714843 15-14.996093 15-8.285157 0-15-6.714844-15-15 0-8.28125 6.714843-14.996094 15-14.996094 8.28125 0 14.996093 6.714844 14.996093 14.996094zm0 0"/><path d="m391.988281 45.015625c0 8.285156-6.71875 15-15 15-8.285156 0-15-6.714844-15-15 0-8.28125 6.714844-15 15-15 8.28125 0 15 6.71875 15 15zm0 0"/></g><path d="m123.578125 171.722656 30 59.996094c3.6875 7.355469 12.636719 10.425781 20.125 6.710938 7.410156-3.707032 10.414063-12.714844 6.710937-20.128907l-28.417968-56.832031v-95.71875l-3.824219-1.910156-26.175781-52.367188v153.539063c0 2.332031.542968 4.628906 1.582031 6.710937zm0 0" fill="#895d3c"/><path d="m295.988281 287.707031-53.996093 18-62.996094 21.296875-27.902344 82.800782c-2.398438 7.796874-10.800781 12-18.898438 9.296874-7.796874-2.398437-12-11.097656-9.296874-18.898437l29.996093-89.996094c1.5-4.5 4.800781-7.800781 9.300781-9.300781l79.796876-26.699219 30-9.898437v11.398437zm0 0" fill="#895d3c"/><path d="m246.386719 445.609375c5.859375 5.859375 15.351562 5.859375 21.210937 0l78.734375-78.734375-14.34375-3.585938v-24.492187l-85.601562 85.601563c-5.859375 5.859374-5.859375 15.351562 0 21.210937zm0 0" fill="#714c2f"/><path d="m246.492188 85.515625-4.5-4.5v-60.296875l38.398437-19.199219c7.199219-3.601562 16.199219-.597656 20.097656 6.898438l30 60c2.101563 4.5 2.101563 10.199219-.601562 14.398437-2.996094 4.5-7.796875 7.199219-12.898438 7.199219h-59.996093c-3.902344 0-7.800782-1.5-10.5-4.5zm0 0" fill="#714c2f"/><path d="m295.988281 287.707031-53.996093 18v-31.496093l30-9.902344v11.402344zm0 0" fill="#714c2f"/><path d="m507.480469 184.511719c-3.898438-4.199219-9.898438-5.699219-15.296875-3.601563l-127.195313 42.300782c-4.800781 1.5-8.699219 5.699218-9.898437 10.800781-1.203125 5.097656.296875 10.496093 3.898437 14.097656l84.894531 84.894531c3.601563 3.300782 9 5.101563 14.101563 3.902344 5.097656-1.199219 9.296875-5.101562 10.796875-9.902344l42.300781-127.195312c1.800781-5.398438.601563-11.398438-3.601562-15.296875zm0 0" fill="#61d7a8"/><path d="m511.082031 199.8125-42.296875 127.195312c-1.5 4.800782-5.699218 8.699219-10.800781 9.898438s-10.5-.601562-14.101563-3.898438l-42.296874-42.296874 105.894531-106.199219c4.203125 3.898437 5.402343 9.898437 3.601562 15.300781zm0 0" fill="#00ab94"/></svg>