<svg id="Layer_1" enable-background="new 0 0 512 512" height="512" viewBox="0 0 512 512" width="512" xmlns="http://www.w3.org/2000/svg"><g><path d="m508.072 160.934c-9.968-30.599-40.982-50.143-72.889-48.511 7.85-11.851 11.991-25.562 11.991-39.926 0-39.975-32.522-72.497-72.497-72.497-18.333 0-35.817 6.853-49.255 19.301l-200.968 164.971c-.249.204-.475.425-.691.653-20.57 17.888-33.596 44.239-33.596 73.576 0 8.901 1.206 17.525 3.451 25.723 0 0-56.809 53.41-69.342 66.173-13.604 13.853-24.104 39.585-24.104 64.107 0 53.76 43.736 97.496 97.496 97.496 40.482 0 75.276-24.802 89.996-60.007 14.719 35.205 49.513 60.007 89.994 60.007 38.705 0 72.213-22.672 87.945-55.433l114.976-197.537c4.878-8.381-8.087-15.928-12.964-7.546l-92.55 159.009c-2.112-51.906-44.991-93.484-97.407-93.484-4.271 0-8.479.279-12.607.814 0 0 132.188-157.7 155.916-186.834 27.759-12.968 63.856 7.009 72.842 34.592 5.089 15.621 3.711 32.888-3.781 47.373-4.454 8.614 8.87 15.504 13.324 6.891 9.324-18.028 11.044-39.5 4.72-58.911zm-172.899-130.231c11.57-9.503 24.149-15.703 39.504-15.703 31.704 0 57.498 25.793 57.498 57.498 0 12.474-3.922 24.329-11.344 34.295 0 0-127.342 153.102-136.456 164.104.518-4.06.784-8.198.784-12.396 0-53.759-43.736-97.496-97.495-97.496-4.112 0-8.165.259-12.144.755zm-147.51 145.302c45.488 0 82.495 37.007 82.495 82.496 0 44.679-37.782 82.495-82.495 82.495-45.488 0-82.496-37.007-82.496-82.495.001-45.488 37.008-82.496 82.496-82.496zm12.69 179.166c-5.122 6.658-9.406 13.991-12.69 21.845-3.284-7.854-7.568-15.187-12.69-21.845 4.155.542 8.39.825 12.69.825s8.536-.283 12.69-.825zm-101.1-55.602c3.036 6.51 6.769 12.63 11.105 18.265-4.155-.542-8.39-.825-12.69-.825-6.369 0-12.596.621-18.628 1.793zm-1.585 197.431c-45.488 0-82.496-37.007-82.496-82.496 0-21.075 7.954-40.32 21.004-54.917 16.113-17.019 37.747-27.578 61.492-27.578 45.488 0 82.496 37.007 82.496 82.496s-37.008 82.495-82.496 82.495zm262.486-82.496c0 45.488-37.007 82.496-82.496 82.496-45.488 0-82.495-37.007-82.495-82.496s37.007-82.496 82.495-82.496c45.489.001 82.496 37.008 82.496 82.496z"/><path d="m187.663 330.996c39.974 0 72.496-32.521 72.496-72.496s-32.521-72.496-72.496-72.496c-13.877 0-27.389 3.969-39.076 11.477-8.159 5.241-.051 17.861 8.107 12.62 9.264-5.951 19.973-9.097 30.969-9.097 31.703 0 57.496 25.792 57.496 57.496s-25.792 57.496-57.496 57.496-57.495-25.792-57.495-57.496c0-7.317 1.379-14.475 4.099-21.273 3.602-9.003-10.325-14.575-13.927-5.571-3.432 8.579-5.172 17.611-5.172 26.845 0 39.974 32.521 72.495 72.495 72.495z"/><path d="m97.667 342.009c-39.974 0-72.495 32.521-72.495 72.496s32.521 72.495 72.495 72.495 72.496-32.521 72.496-72.496-32.522-72.495-72.496-72.495zm0 129.991c-31.703 0-57.495-25.792-57.495-57.496s25.792-57.496 57.495-57.496 57.496 25.792 57.496 57.496-25.793 57.496-57.496 57.496z"/><path d="m277.659 487c39.974 0 72.495-32.521 72.495-72.496s-32.521-72.496-72.495-72.496-72.496 32.521-72.496 72.496 32.522 72.496 72.496 72.496zm0-129.991c31.703 0 57.495 25.792 57.495 57.496s-25.792 57.495-57.495 57.495-57.496-25.792-57.496-57.496 25.793-57.495 57.496-57.495z"/></g></svg>