<svg id="Layer_1" enable-background="new 0 0 512 512" height="512" viewBox="0 0 512 512" width="512" xmlns="http://www.w3.org/2000/svg"><g><g><path d="m479 233.124h-211.98l-15.02-12.081-18.784 12.081h-218.216c-8.284 0-15-6.716-15-15v-163.448c0-8.284 6.716-15 15-15h218l23 16.431 11-16.431h212c8.284 0 15 6.716 15 15v163.448c0 8.284-6.716 15-15 15z" fill="#f9f9f9"/></g><path d="m479 39.676h-212l-11 16.431v168.153l11.02 8.864h211.98c8.284 0 15-6.716 15-15v-163.448c0-8.284-6.716-15-15-15z" fill="#e2dff4"/><g><path d="m60 252.125h-30c-16.542 0-30-13.458-30-30v-171.449c0-16.542 13.458-30 30-30h30c16.542 0 30 13.458 30 30v171.449c0 16.542-13.458 30-30 30z" fill="#007a9f"/></g><g><path d="m482 252.125h-30c-16.542 0-30-13.458-30-30v-171.449c0-16.542 13.458-30 30-30h30c16.542 0 30 13.458 30 30v171.449c0 16.542-13.458 30-30 30z" fill="#00607f"/></g><g><path d="m256 491.324c-45.215 0-82-36.785-82-82 0-23.667 18.238-57.745 33.539-82.165 7.703-12.294 16.095-24.389 23.63-34.057 11.887-15.251 17.225-19.427 24.831-19.427s12.944 4.176 24.831 19.427c7.535 9.668 15.927 21.763 23.63 34.057 15.301 24.42 33.539 58.498 33.539 82.165 0 45.215-36.785 82-82 82z" fill="#76e2f8"/></g><path d="m254.975 81.574-35.528 45.608c-4.223 5.42-4.223 13.016 0 18.436l35.528 45.609-21.758 41.897h33.804l19.013-36.61c2.703-5.204 2.125-11.506-1.479-16.131l-34.262-43.983 34.262-43.981c3.604-4.626 4.182-10.928 1.479-16.131l-19.014-36.612h-33.804z" fill="#e2dff4"/><g fill="#bebcdd"><path d="m256 129.074 28.555-36.655c3.604-4.626 4.182-10.928 1.479-16.131l-19.014-36.612h-11.02z"/><path d="m256 143.727v89.397h11.02l19.013-36.61c2.703-5.204 2.125-11.506-1.479-16.131z"/></g><path d="m304.461 327.159c-7.703-12.294-16.095-24.389-23.63-34.057-11.887-15.251-17.225-19.427-24.831-19.427v217.648c45.215 0 82-36.785 82-82 0-23.666-18.238-57.744-33.539-82.164z" fill="#4bb9ec"/></g></svg>