<svg id="Layer_1" enable-background="new 0 0 512 512" height="512" viewBox="0 0 512 512" width="512" xmlns="http://www.w3.org/2000/svg"><g><g><path d="m462.326 245.282h-420.73v-147.832h420.73z" fill="#f9f9f9"/></g><path d="m256 97.45h206.326v147.832h-206.326z" fill="#e2dff4"/><g><path d="m60 268.282h-30c-16.542 0-30-13.458-30-30v-133.832c0-16.542 13.458-30 30-30h30c16.542 0 30 13.458 30 30v133.832c0 16.542-13.458 30-30 30z" fill="#007a9f"/></g><g><path d="m482 268.282h-30c-16.542 0-30-13.458-30-30v-133.832c0-16.542 13.458-30 30-30h30c16.542 0 30 13.458 30 30v133.832c0 16.542-13.458 30-30 30z" fill="#00607f"/></g><path d="m258.228 141.149-24.124 40.618c-4.23 7.123-1.886 16.326 5.236 20.557 2.402 1.427 5.041 2.105 7.646 2.105 5.119 0 10.108-2.622 12.911-7.342l30-50.512c3.467-5.836 2.582-13.272-2.157-18.132l-30.221-30.993h-41.899z" fill="#e2dff4"/><path d="m287.739 128.444-30.22-30.994h-1.519v41.415l2.228 2.285-2.228 3.75v56.529c1.527-1.144 2.862-2.599 3.896-4.341l30-50.512c3.467-5.836 2.583-13.272-2.157-18.132z" fill="#bebcdd"/><path clip-rule="evenodd" d="m255.996 174.95 143.441 247.6h-286.882z" fill="#ffde46" fill-rule="evenodd"/><path d="m399.438 437.55h-286.883c-5.363 0-10.318-2.863-12.996-7.51s-2.672-10.369.017-15.01l143.441-247.6c2.683-4.63 7.629-7.48 12.979-7.48s10.297 2.851 12.979 7.48l143.441 247.6c2.688 4.641 2.694 10.363.017 15.01s-7.632 7.51-12.995 7.51zm-260.858-30h234.832l-117.416-202.677z" fill="#fdbf00"/><path clip-rule="evenodd" d="m256 174.957v247.593h143.437z" fill="#ffcd00" fill-rule="evenodd"/><g><path d="m257.321 329.95c-8.284 0-15-6.716-15-15v-36c0-8.284 6.716-15 15-15s15 6.716 15 15v36c0 8.284-6.716 15-15 15z" fill="#00607f"/></g><g><path clip-rule="evenodd" d="m255.996 384.45c8.262 0 15-6.739 15-15 0-8.262-6.738-15-15-15s-15 6.738-15 15 6.739 15 15 15z" fill="#00607f" fill-rule="evenodd"/></g><path clip-rule="evenodd" d="m256 354.45v30c8.26-.002 14.996-6.74 14.996-15s-6.736-14.998-14.996-15z" fill="#002c3c" fill-rule="evenodd"/><path d="m257.321 263.95c-.446 0-.885.029-1.321.067v65.867c.436.038.875.067 1.321.067 8.284 0 15-6.716 15-15v-36c0-8.285-6.716-15.001-15-15.001z" fill="#002c3c"/><path d="m412.417 415.03-143.441-247.6c-2.682-4.629-7.626-7.479-12.976-7.48v44.93l117.412 202.67h-117.412v30h143.438c5.363 0 10.318-2.863 12.996-7.51s2.671-10.369-.017-15.01z" fill="#ff8856"/></g></svg>